<svg xmlns="http://www.w3.org/2000/svg" width="55.219" height="25.12" viewBox="0 0 55.219 25.12">
  <metadata><?xpacket begin="﻿" id="W5M0MpCehiHzreSzNTczkc9d"?>
<x:xmpmeta xmlns:x="adobe:ns:meta/" x:xmptk="Adobe XMP Core 5.6-c142 79.160924, 2017/07/13-01:06:39        ">
   <rdf:RDF xmlns:rdf="http://www.w3.org/1999/02/22-rdf-syntax-ns#">
      <rdf:Description rdf:about=""/>
   </rdf:RDF>
</x:xmpmeta>
                                                                                                    
                                                                                                    
                                                                                                    
                                                                                                    
                                                                                                    
                                                                                                    
                                                                                                    
                                                                                                    
                                                                                                    
                                                                                                    
                                                                                                    
                                                                                                    
                                                                                                    
                                                                                                    
                                                                                                    
                                                                                                    
                                                                                                    
                                                                                                    
                                                                                                    
                                                                                                    
                           
<?xpacket end="w"?></metadata>
<defs>
    <style>
      .cls-1 {
        fill: #088199;
        fill-rule: evenodd;
      }
    </style>
  </defs>
  <path id="CNO" class="cls-1" d="M653.677,2167.34a1.85,1.85,0,0,0,.341-0.4,0.531,0.531,0,0,0,.054-0.25v-4.07a0.481,0.481,0,0,0-.162-0.34,0.471,0.471,0,0,0-.342-0.16h-4.284a0.454,0.454,0,0,0-.36.16,0.508,0.508,0,0,0-.144.34v1.08a0.332,0.332,0,0,1-.108.25l-0.5.51h-4.175l-0.5-.51a0.324,0.324,0,0,1-.145-0.28v-12.71a0.569,0.569,0,0,1,.145-0.33l0.576-.61a0.353,0.353,0,0,1,.251-0.11h3.492a0.358,0.358,0,0,1,.253.11l0.611,0.61a0.37,0.37,0,0,1,.108.26v0.93a0.49,0.49,0,0,0,.144.34,0.463,0.463,0,0,0,.36.17h4.284a0.485,0.485,0,0,0,.342-0.17,0.464,0.464,0,0,0,.162-0.34v-3.85a1.5,1.5,0,0,0-.072-0.49,1.264,1.264,0,0,0-.323-0.44l-2.017-2.02a1.3,1.3,0,0,0-.468-0.33,1.737,1.737,0,0,0-.467-0.07H641.4a1.608,1.608,0,0,0-.432.06,1.158,1.158,0,0,0-.5.34l-2.015,2.02a1,1,0,0,0-.325.57c-0.024.19-.035,0.31-0.035,0.36v18.43a2.863,2.863,0,0,0,.035.42,1.027,1.027,0,0,0,.325.52l2.015,2.01a1.212,1.212,0,0,0,.5.33,1.515,1.515,0,0,0,.432.07h9.287a1.642,1.642,0,0,0,.469-0.07,1.22,1.22,0,0,0,.5-0.33Zm19.547,2.41a0.454,0.454,0,0,0,.36-0.16,0.508,0.508,0,0,0,.144-0.34v-24.12a0.448,0.448,0,0,0-.5-0.51H668.94a0.5,0.5,0,0,0-.342.15,0.445,0.445,0,0,0-.162.36v14.22l-0.18-.4-4.752-13.82a0.61,0.61,0,0,0-.54-0.51h-5.256a0.448,0.448,0,0,0-.5.51v24.12a0.508,0.508,0,0,0,.144.34,0.454,0.454,0,0,0,.36.16h4.284a0.471,0.471,0,0,0,.342-0.16,0.481,0.481,0,0,0,.162-0.34v-12.06l4.392,12.06a0.944,0.944,0,0,0,.252.34,0.568,0.568,0,0,0,.4.16h5.688Zm19.728-2.41a1.126,1.126,0,0,0,.288-0.49,1.859,1.859,0,0,0,.072-0.45v-18.43a1.334,1.334,0,0,0-.108-0.58,1.3,1.3,0,0,0-.252-0.35l-2.052-2.02a1.2,1.2,0,0,0-.486-0.36,2.455,2.455,0,0,0-.45-0.04h-9.288a1.833,1.833,0,0,0-.45.07,1.235,1.235,0,0,0-.486.33l-2.016,2.02a1.261,1.261,0,0,0-.288.44,1.408,1.408,0,0,0-.108.49v18.43a1.278,1.278,0,0,0,.4.94l2.016,2.01a1.345,1.345,0,0,0,.45.33,1.379,1.379,0,0,0,.486.07h9.4a1.155,1.155,0,0,0,.828-0.4Zm-5.544-2.88h-4.176l-0.5-.51a0.405,0.405,0,0,1-.108-0.25v-12.81a0.391,0.391,0,0,1,.108-0.29l0.612-.58a0.461,0.461,0,0,1,.252-0.11h3.492a0.357,0.357,0,0,1,.252.11l0.576,0.58a0.391,0.391,0,0,1,.108.29v12.81a0.332,0.332,0,0,1-.108.25Z" transform="translate(-638.094 -2144.63)"/>
</svg>
