<svg xmlns="http://www.w3.org/2000/svg" width="54.69" height="25.12" viewBox="0 0 54.69 25.12">
  <metadata><?xpacket begin="﻿" id="W5M0MpCehiHzreSzNTczkc9d"?>
<x:xmpmeta xmlns:x="adobe:ns:meta/" x:xmptk="Adobe XMP Core 5.6-c142 79.160924, 2017/07/13-01:06:39        ">
   <rdf:RDF xmlns:rdf="http://www.w3.org/1999/02/22-rdf-syntax-ns#">
      <rdf:Description rdf:about=""/>
   </rdf:RDF>
</x:xmpmeta>
                                                                                                    
                                                                                                    
                                                                                                    
                                                                                                    
                                                                                                    
                                                                                                    
                                                                                                    
                                                                                                    
                                                                                                    
                                                                                                    
                                                                                                    
                                                                                                    
                                                                                                    
                                                                                                    
                                                                                                    
                                                                                                    
                                                                                                    
                                                                                                    
                                                                                                    
                                                                                                    
                           
<?xpacket end="w"?></metadata>
<defs>
    <style>
      .cls-1 {
        fill: #088199;
        fill-rule: evenodd;
      }
    </style>
  </defs>
  <path id="CNP" class="cls-1" d="M1132.68,2167.34a2,2,0,0,0,.34-0.4,0.618,0.618,0,0,0,.05-0.25v-4.07a0.555,0.555,0,0,0-.5-0.5h-4.29a0.465,0.465,0,0,0-.36.16,0.533,0.533,0,0,0-.14.34v1.08a0.341,0.341,0,0,1-.11.25l-0.5.51h-4.18l-0.5-.51a0.322,0.322,0,0,1-.15-0.28v-12.71a0.561,0.561,0,0,1,.15-0.33l0.57-.61a0.381,0.381,0,0,1,.26-0.11h3.49a0.358,0.358,0,0,1,.25.11l0.61,0.61a0.381,0.381,0,0,1,.11.26v0.93a0.513,0.513,0,0,0,.14.34,0.475,0.475,0,0,0,.36.17h4.29a0.485,0.485,0,0,0,.34-0.17,0.455,0.455,0,0,0,.16-0.34v-3.85a1.448,1.448,0,0,0-.07-0.49,1.376,1.376,0,0,0-.32-0.44l-2.02-2.02a1.269,1.269,0,0,0-.47-0.33,1.717,1.717,0,0,0-.47-0.07h-9.32a1.593,1.593,0,0,0-.43.06,1.179,1.179,0,0,0-.51.34l-2.01,2.02a1.062,1.062,0,0,0-.33.57q-0.03.285-.03,0.36v18.43a3.441,3.441,0,0,0,.03.42,1.111,1.111,0,0,0,.33.52l2.01,2.01a1.232,1.232,0,0,0,.51.33,1.524,1.524,0,0,0,.43.07h9.29a1.674,1.674,0,0,0,.47-0.07,1.271,1.271,0,0,0,.5-0.33Zm19.54,2.41a0.438,0.438,0,0,0,.36-0.16,0.5,0.5,0,0,0,.15-0.34v-24.12a0.451,0.451,0,0,0-.51-0.51h-4.28a0.5,0.5,0,0,0-.34.15,0.438,0.438,0,0,0-.16.36v14.22l-0.18-.4-4.76-13.82a0.61,0.61,0,0,0-.54-0.51h-5.25a0.451,0.451,0,0,0-.51.51v24.12a0.5,0.5,0,0,0,.15.34,0.438,0.438,0,0,0,.36.16h4.28a0.455,0.455,0,0,0,.34-0.16,0.485,0.485,0,0,0,.17-0.34v-12.06l4.39,12.06a0.961,0.961,0,0,0,.25.34,0.567,0.567,0,0,0,.4.16h5.68Zm9,0a0.507,0.507,0,0,0,.38-0.16,0.471,0.471,0,0,0,.16-0.34v-8.72h6.74a1.451,1.451,0,0,0,.37-0.05,1.142,1.142,0,0,0,.49-0.3l2.02-2.06a1.211,1.211,0,0,0,.36-0.55,3.441,3.441,0,0,0,.03-0.42v-9.18a1.9,1.9,0,0,0-.05-0.39,1.414,1.414,0,0,0-.34-0.54l-2.02-2.06a1.209,1.209,0,0,0-.43-0.29,1.9,1.9,0,0,0-.51-0.07h-11.44a0.451,0.451,0,0,0-.51.51v24.12a0.5,0.5,0,0,0,.15.34,0.438,0.438,0,0,0,.36.16h4.24Zm4.54-14.62a0.363,0.363,0,0,1-.29.11h-3.71v-5.33h3.71a0.4,0.4,0,0,1,.29.11l0.61,0.61a0.381,0.381,0,0,1,.11.26v3.45a0.312,0.312,0,0,1-.11.22Z" transform="translate(-1117.09 -2144.63)"/>
</svg>
