<svg xmlns="http://www.w3.org/2000/svg" width="97.281" height="25.12" viewBox="0 0 97.281 25.12">
  <metadata><?xpacket begin="﻿" id="W5M0MpCehiHzreSzNTczkc9d"?>
<x:xmpmeta xmlns:x="adobe:ns:meta/" x:xmptk="Adobe XMP Core 5.6-c142 79.160924, 2017/07/13-01:06:39        ">
   <rdf:RDF xmlns:rdf="http://www.w3.org/1999/02/22-rdf-syntax-ns#">
      <rdf:Description rdf:about=""/>
   </rdf:RDF>
</x:xmpmeta>
                                                                                                    
                                                                                                    
                                                                                                    
                                                                                                    
                                                                                                    
                                                                                                    
                                                                                                    
                                                                                                    
                                                                                                    
                                                                                                    
                                                                                                    
                                                                                                    
                                                                                                    
                                                                                                    
                                                                                                    
                                                                                                    
                                                                                                    
                                                                                                    
                                                                                                    
                                                                                                    
                           
<?xpacket end="w"?></metadata>
<defs>
    <style>
      .cls-1 {
        fill: #088199;
        fill-rule: evenodd;
      }
    </style>
  </defs>
  <path id="MCPON" class="cls-1" d="M849.817,2169.75a0.445,0.445,0,0,0,.5-0.5l-0.937-24.12a0.73,0.73,0,0,0-.09-0.35,0.335,0.335,0,0,0-.306-0.16h-4.571a0.526,0.526,0,0,0-.541.47l-3.78,13.93-0.288,3.03-0.4-3.03-3.24-13.93a0.524,0.524,0,0,0-.539-0.47h-4.572a0.348,0.348,0,0,0-.289.16,0.636,0.636,0,0,0-.108.35l-0.972,24.12a0.474,0.474,0,0,0,.162.36,0.534,0.534,0,0,0,.342.14h4.284a0.445,0.445,0,0,0,.5-0.5l0.18-9.15,2.736,9.15a0.752,0.752,0,0,0,.271.36,0.728,0.728,0,0,0,.414.14h2.88a0.566,0.566,0,0,0,.395-0.16,0.944,0.944,0,0,0,.252-0.34l2.772-9.15,0.144,9.15a0.471,0.471,0,0,0,.163.36,0.573,0.573,0,0,0,.377.14h4.249Zm19.079-2.41a1.835,1.835,0,0,0,.342-0.4,0.531,0.531,0,0,0,.054-0.25v-4.07a0.481,0.481,0,0,0-.162-0.34,0.471,0.471,0,0,0-.342-0.16H864.5a0.454,0.454,0,0,0-.36.16,0.508,0.508,0,0,0-.144.34v1.08a0.332,0.332,0,0,1-.108.25l-0.5.51h-4.176l-0.5-.51a0.326,0.326,0,0,1-.144-0.28v-12.71a0.573,0.573,0,0,1,.144-0.33l0.576-.61a0.355,0.355,0,0,1,.252-0.11h3.492a0.355,0.355,0,0,1,.252.11l0.612,0.61a0.37,0.37,0,0,1,.108.26v0.93a0.49,0.49,0,0,0,.144.34,0.463,0.463,0,0,0,.36.17h4.284a0.485,0.485,0,0,0,.342-0.17,0.464,0.464,0,0,0,.162-0.34v-3.85a1.5,1.5,0,0,0-.072-0.49,1.256,1.256,0,0,0-.324-0.44l-2.016-2.02a1.3,1.3,0,0,0-.468-0.33,1.738,1.738,0,0,0-.468-0.07H856.62a1.608,1.608,0,0,0-.432.06,1.156,1.156,0,0,0-.5.34l-2.016,2.02a1,1,0,0,0-.324.57q-0.036.285-.036,0.36v18.43a2.878,2.878,0,0,0,.036.42,1.031,1.031,0,0,0,.324.52l2.016,2.01a1.216,1.216,0,0,0,.5.33,1.526,1.526,0,0,0,.432.07h9.288a1.631,1.631,0,0,0,.468-0.07,1.216,1.216,0,0,0,.5-0.33Zm8.28,2.41a0.508,0.508,0,0,0,.378-0.16,0.481,0.481,0,0,0,.162-0.34v-8.72h6.732a1.517,1.517,0,0,0,.378-0.05,1.154,1.154,0,0,0,.486-0.3l2.016-2.06a1.124,1.124,0,0,0,.36-0.55,3.024,3.024,0,0,0,.036-0.42v-9.18a1.572,1.572,0,0,0-.054-0.39,1.363,1.363,0,0,0-.342-0.54l-2.016-2.06a1.215,1.215,0,0,0-.432-0.29,1.875,1.875,0,0,0-.5-0.07H872.928a0.448,0.448,0,0,0-.5.51v24.12a0.5,0.5,0,0,0,.144.34,0.452,0.452,0,0,0,.36.16h4.248Zm4.536-14.62a0.363,0.363,0,0,1-.288.11h-3.708v-5.33h3.708a0.4,0.4,0,0,1,.288.11l0.612,0.61a0.37,0.37,0,0,1,.108.26v3.45a0.3,0.3,0,0,1-.108.22Zm24.767,12.21a1.117,1.117,0,0,0,.288-0.49,1.811,1.811,0,0,0,.072-0.45v-18.43a1.334,1.334,0,0,0-.108-0.58,1.28,1.28,0,0,0-.252-0.35l-2.052-2.02a1.2,1.2,0,0,0-.486-0.36,2.446,2.446,0,0,0-.45-0.04H894.2a1.84,1.84,0,0,0-.45.07,1.249,1.249,0,0,0-.486.33l-2.016,2.02a1.275,1.275,0,0,0-.288.44,1.408,1.408,0,0,0-.108.49v18.43a1.282,1.282,0,0,0,.4.94l2.016,2.01a1.365,1.365,0,0,0,.45.33,1.387,1.387,0,0,0,.486.07h9.4a1.153,1.153,0,0,0,.828-0.4Zm-5.544-2.88h-4.176l-0.5-.51a0.405,0.405,0,0,1-.108-0.25v-12.81a0.391,0.391,0,0,1,.108-0.29l0.612-.58a0.464,0.464,0,0,1,.252-0.11h3.492a0.355,0.355,0,0,1,.252.11l0.576,0.58a0.391,0.391,0,0,1,.108.29v12.81a0.332,0.332,0,0,1-.108.25Zm25.524,5.29a0.454,0.454,0,0,0,.36-0.16,0.508,0.508,0,0,0,.144-0.34v-24.12a0.448,0.448,0,0,0-.5-0.51h-4.284a0.5,0.5,0,0,0-.342.15,0.445,0.445,0,0,0-.162.36v14.22l-0.18-.4-4.752-13.82a0.61,0.61,0,0,0-.54-0.51h-5.256a0.448,0.448,0,0,0-.5.51v24.12a0.508,0.508,0,0,0,.144.34,0.454,0.454,0,0,0,.36.16h4.284a0.471,0.471,0,0,0,.342-0.16,0.481,0.481,0,0,0,.162-0.34v-12.06l4.392,12.06a0.944,0.944,0,0,0,.252.34,0.568,0.568,0,0,0,.4.16h5.688Z" transform="translate(-829.688 -2144.63)"/>
</svg>
