<svg xmlns="http://www.w3.org/2000/svg" width="52.594" height="25.12" viewBox="0 0 52.594 25.12">
  <metadata><?xpacket begin="﻿" id="W5M0MpCehiHzreSzNTczkc9d"?>
<x:xmpmeta xmlns:x="adobe:ns:meta/" x:xmptk="Adobe XMP Core 5.6-c142 79.160924, 2017/07/13-01:06:39        ">
   <rdf:RDF xmlns:rdf="http://www.w3.org/1999/02/22-rdf-syntax-ns#">
      <rdf:Description rdf:about=""/>
   </rdf:RDF>
</x:xmpmeta>
                                                                                                    
                                                                                                    
                                                                                                    
                                                                                                    
                                                                                                    
                                                                                                    
                                                                                                    
                                                                                                    
                                                                                                    
                                                                                                    
                                                                                                    
                                                                                                    
                                                                                                    
                                                                                                    
                                                                                                    
                                                                                                    
                                                                                                    
                                                                                                    
                                                                                                    
                                                                                                    
                           
<?xpacket end="w"?></metadata>
<defs>
    <style>
      .cls-1 {
        fill: #088199;
        fill-rule: evenodd;
      }
    </style>
  </defs>
  <path id="POD" class="cls-1" d="M930.784,2043.32a0.508,0.508,0,0,0,.378-0.16,0.481,0.481,0,0,0,.162-0.34v-8.72h6.732a1.517,1.517,0,0,0,.378-0.05,1.082,1.082,0,0,0,.486-0.31l2.016-2.05a1.1,1.1,0,0,0,.36-0.56,2.778,2.778,0,0,0,.036-0.41v-9.18a1.714,1.714,0,0,0-.054-0.4,1.5,1.5,0,0,0-.342-0.54l-2.016-2.05a1.215,1.215,0,0,0-.432-0.29,1.869,1.869,0,0,0-.5-0.07H926.536a0.448,0.448,0,0,0-.5.51v24.12a0.508,0.508,0,0,0,.144.34,0.452,0.452,0,0,0,.36.16h4.248Zm4.536-14.62a0.362,0.362,0,0,1-.288.11h-3.708v-5.33h3.708a0.4,0.4,0,0,1,.288.11l0.612,0.61a0.37,0.37,0,0,1,.108.26v3.45a0.319,0.319,0,0,1-.108.22Zm24.407,12.21a1.117,1.117,0,0,0,.288-0.49,1.811,1.811,0,0,0,.072-0.45v-18.43a1.334,1.334,0,0,0-.108-0.58,1.517,1.517,0,0,0-.252-0.36l-2.052-2.01a1.2,1.2,0,0,0-.486-0.36,1.8,1.8,0,0,0-.45-0.04h-9.288a1.84,1.84,0,0,0-.45.07,1.249,1.249,0,0,0-.486.33l-2.016,2.01a1.32,1.32,0,0,0-.288.45,1.363,1.363,0,0,0-.108.49v18.43a1.3,1.3,0,0,0,.4.94l2.016,2.01a1.365,1.365,0,0,0,.45.33,1.387,1.387,0,0,0,.486.07h9.4a1.153,1.153,0,0,0,.828-0.4Zm-5.544-2.88h-4.176l-0.5-.51a0.429,0.429,0,0,1-.108-0.25v-12.81a0.391,0.391,0,0,1,.108-0.29l0.612-.58a0.464,0.464,0,0,1,.252-0.11h3.492a0.355,0.355,0,0,1,.252.11l0.576,0.58a0.391,0.391,0,0,1,.108.29v12.81a0.332,0.332,0,0,1-.108.25Zm24.048,2.88a1.188,1.188,0,0,0,.342-0.52,1.947,1.947,0,0,0,.054-0.42v-18.43a1.613,1.613,0,0,0-.072-0.43,1.213,1.213,0,0,0-.324-0.51l-2.016-2.01a1.249,1.249,0,0,0-.486-0.33,1.84,1.84,0,0,0-.45-0.07H963.831a0.448,0.448,0,0,0-.5.51v24.12a0.445,0.445,0,0,0,.5.5h11.448a1.261,1.261,0,0,0,.936-0.4Zm-5.508-2.88h-4.1v-14.55h3.744a0.286,0.286,0,0,1,.252.11l0.612,0.61a0.37,0.37,0,0,1,.108.26v12.81a0.429,0.429,0,0,1-.108.25Z" transform="translate(-926.031 -2018.19)"/>
</svg>
