<svg xmlns="http://www.w3.org/2000/svg" width="110.5" height="25.12" viewBox="0 0 110.5 25.12">
  <metadata><?xpacket begin="﻿" id="W5M0MpCehiHzreSzNTczkc9d"?>
<x:xmpmeta xmlns:x="adobe:ns:meta/" x:xmptk="Adobe XMP Core 5.6-c142 79.160924, 2017/07/13-01:06:39        ">
   <rdf:RDF xmlns:rdf="http://www.w3.org/1999/02/22-rdf-syntax-ns#">
      <rdf:Description rdf:about=""/>
   </rdf:RDF>
</x:xmpmeta>
                                                                                                    
                                                                                                    
                                                                                                    
                                                                                                    
                                                                                                    
                                                                                                    
                                                                                                    
                                                                                                    
                                                                                                    
                                                                                                    
                                                                                                    
                                                                                                    
                                                                                                    
                                                                                                    
                                                                                                    
                                                                                                    
                                                                                                    
                                                                                                    
                                                                                                    
                                                                                                    
                           
<?xpacket end="w"?></metadata>
<defs>
    <style>
      .cls-1 {
        fill: #088199;
        fill-rule: evenodd;
      }
    </style>
  </defs>
  <path id="SECNAV" class="cls-1" d="M269.6,2167.34a1.213,1.213,0,0,0,.324-0.51,1.553,1.553,0,0,0,.072-0.43v-8.53a1.457,1.457,0,0,0-.054-0.43,1.506,1.506,0,0,0-.342-0.5l-2.015-2.02a1.884,1.884,0,0,0-.4-0.33,1.546,1.546,0,0,0-.54-0.07h-6.731l-0.5-.5a0.405,0.405,0,0,1-.144-0.25v-2.88a0.419,0.419,0,0,1,.144-0.29l0.577-.58a0.353,0.353,0,0,1,.251-0.11h4.465v1.81a0.444,0.444,0,0,0,.5.5h4.248a0.543,0.543,0,0,0,.379-0.15,0.441,0.441,0,0,0,.161-0.35v-3.71a1.3,1.3,0,0,0-.4-0.97l-2.015-2.02a1.377,1.377,0,0,0-.451-0.33,1.667,1.667,0,0,0-.486-0.07h-9.323a1.62,1.62,0,0,0-.433.06,1.156,1.156,0,0,0-.5.34l-2.015,2.02a1.257,1.257,0,0,0-.4.93v8.5a1.238,1.238,0,0,0,.108.54,1.541,1.541,0,0,0,.289.39l2.015,2.02a1.29,1.29,0,0,0,.937.39h6.479a0.311,0.311,0,0,1,.18.11l0.54,0.51a0.429,0.429,0,0,1,.181.36v2.73a0.371,0.371,0,0,1-.109.26l-0.612.57a0.311,0.311,0,0,1-.18.11h-4.536v-1.62a0.441,0.441,0,0,0-.5-0.5h-4.247a0.534,0.534,0,0,0-.379.14,0.477,0.477,0,0,0-.162.36v3.49a1.525,1.525,0,0,0,.108.54,1.306,1.306,0,0,0,.289.47l2.015,2.01a1.262,1.262,0,0,0,.937.4h9.323a1.474,1.474,0,0,0,.468-0.11,1.162,1.162,0,0,0,.469-0.29Zm17.5,2.41a0.534,0.534,0,0,0,.342-0.14,0.474,0.474,0,0,0,.162-0.36v-4.29a0.474,0.474,0,0,0-.162-0.36,0.534,0.534,0,0,0-.342-0.14h-8.316v-4.65h6.372a0.441,0.441,0,0,0,.5-0.5v-4.28a0.448,0.448,0,0,0-.5-0.51h-6.372v-4.61H287.1a0.486,0.486,0,0,0,.342-0.14,0.459,0.459,0,0,0,.162-0.36v-4.28a0.445,0.445,0,0,0-.162-0.36,0.5,0.5,0,0,0-.342-0.15H274a0.448,0.448,0,0,0-.5.51v24.12a0.445,0.445,0,0,0,.5.5h13.1Zm18.648-2.41a1.835,1.835,0,0,0,.342-0.4,0.531,0.531,0,0,0,.054-0.25v-4.07a0.481,0.481,0,0,0-.162-0.34,0.471,0.471,0,0,0-.342-0.16h-4.284a0.452,0.452,0,0,0-.36.16,0.508,0.508,0,0,0-.144.34v1.08a0.332,0.332,0,0,1-.108.25l-0.5.51h-4.176l-0.5-.51a0.326,0.326,0,0,1-.144-0.28v-12.71a0.573,0.573,0,0,1,.144-0.33l0.576-.61a0.355,0.355,0,0,1,.252-0.11h3.492a0.357,0.357,0,0,1,.252.11l0.612,0.61a0.37,0.37,0,0,1,.108.26v0.93a0.49,0.49,0,0,0,.144.34,0.461,0.461,0,0,0,.36.17h4.284a0.485,0.485,0,0,0,.342-0.17,0.464,0.464,0,0,0,.162-0.34v-3.85a1.5,1.5,0,0,0-.072-0.49,1.256,1.256,0,0,0-.324-0.44l-2.016-2.02a1.3,1.3,0,0,0-.468-0.33,1.738,1.738,0,0,0-.468-0.07h-9.324a1.608,1.608,0,0,0-.432.06,1.156,1.156,0,0,0-.5.34l-2.016,2.02a0.994,0.994,0,0,0-.324.57q-0.036.285-.036,0.36v18.43a2.878,2.878,0,0,0,.036.42,1.024,1.024,0,0,0,.324.52l2.016,2.01a1.216,1.216,0,0,0,.5.33,1.526,1.526,0,0,0,.432.07h9.288a1.631,1.631,0,0,0,.468-0.07,1.216,1.216,0,0,0,.5-0.33Zm19.547,2.41a0.454,0.454,0,0,0,.36-0.16,0.508,0.508,0,0,0,.144-0.34v-24.12a0.448,0.448,0,0,0-.5-0.51h-4.284a0.5,0.5,0,0,0-.342.15,0.445,0.445,0,0,0-.162.36v14.22l-0.18-.4-4.752-13.82a0.61,0.61,0,0,0-.54-0.51h-5.256a0.448,0.448,0,0,0-.5.51v24.12a0.508,0.508,0,0,0,.144.34,0.454,0.454,0,0,0,.36.16h4.284a0.471,0.471,0,0,0,.342-0.16,0.481,0.481,0,0,0,.162-0.34v-12.06l4.392,12.06a0.944,0.944,0,0,0,.252.34,0.568,0.568,0,0,0,.4.16H325.3Zm21.636,0a0.6,0.6,0,0,0,.45-0.16,0.3,0.3,0,0,0,.09-0.34l-7.128-24.09a0.616,0.616,0,0,0-.5-0.54h-4.284a0.6,0.6,0,0,0-.5.51l-7.128,24.12a0.324,0.324,0,0,0,.054.34,0.584,0.584,0,0,0,.486.16h4.1a0.568,0.568,0,0,0,.4-0.16,0.944,0.944,0,0,0,.252-0.34l0.864-2.92h7.236l0.864,2.92a0.944,0.944,0,0,0,.252.34,0.568,0.568,0,0,0,.4.16h4.1Zm-7.056-8.28h-4.356l2.2-7.38Zm17.64,8.28a0.633,0.633,0,0,0,.414-0.16,0.875,0.875,0,0,0,.27-0.38l6.264-23.94a0.448,0.448,0,0,0-.072-0.41,0.418,0.418,0,0,0-.36-0.24h-4.5a0.537,0.537,0,0,0-.54.51l-3.816,13.82-0.36,2.16-0.288-2.16-3.24-13.82a0.537,0.537,0,0,0-.54-0.51h-4.5a0.414,0.414,0,0,0-.36.22,0.469,0.469,0,0,0-.072.43l6.264,23.94a0.909,0.909,0,0,0,.252.38,0.568,0.568,0,0,0,.4.16h4.788Z" transform="translate(-253.969 -2144.63)"/>
</svg>
