<svg xmlns="http://www.w3.org/2000/svg" width="92.094" height="25.12" viewBox="0 0 92.094 25.12">
  <metadata><?xpacket begin="﻿" id="W5M0MpCehiHzreSzNTczkc9d"?>
<x:xmpmeta xmlns:x="adobe:ns:meta/" x:xmptk="Adobe XMP Core 5.6-c142 79.160924, 2017/07/13-01:06:39        ">
   <rdf:RDF xmlns:rdf="http://www.w3.org/1999/02/22-rdf-syntax-ns#">
      <rdf:Description rdf:about=""/>
   </rdf:RDF>
</x:xmpmeta>
                                                                                                    
                                                                                                    
                                                                                                    
                                                                                                    
                                                                                                    
                                                                                                    
                                                                                                    
                                                                                                    
                                                                                                    
                                                                                                    
                                                                                                    
                                                                                                    
                                                                                                    
                                                                                                    
                                                                                                    
                                                                                                    
                                                                                                    
                                                                                                    
                                                                                                    
                                                                                                    
                           
<?xpacket end="w"?></metadata>
<defs>
    <style>
      .cls-1 {
        fill: #088199;
        fill-rule: evenodd;
      }
    </style>
  </defs>
  <path id="UNDER" class="cls-1" d="M447.785,2167.34a1.27,1.27,0,0,0,.36-0.94v-21.27a0.449,0.449,0,0,0-.5-0.51h-4.249a0.448,0.448,0,0,0-.5.51v18.54a0.4,0.4,0,0,1-.144.28l-0.5.51h-4.177l-0.5-.51a0.4,0.4,0,0,1-.089-0.1,0.384,0.384,0,0,1-.018-0.15v-18.57a0.449,0.449,0,0,0-.5-0.51h-4.284a0.5,0.5,0,0,0-.341.15,0.443,0.443,0,0,0-.163.36v21.27a1.7,1.7,0,0,0,.054.43,1.167,1.167,0,0,0,.342.51l2.017,2.05a1.1,1.1,0,0,0,.432.29,1.536,1.536,0,0,0,.5.07h9.325a1.27,1.27,0,0,0,.521-0.09,1.376,1.376,0,0,0,.414-0.31Zm20.015,2.41a0.454,0.454,0,0,0,.36-0.16,0.508,0.508,0,0,0,.144-0.34v-24.12a0.448,0.448,0,0,0-.5-0.51h-4.284a0.5,0.5,0,0,0-.342.15,0.445,0.445,0,0,0-.162.36v14.22l-0.18-.4-4.752-13.82a0.61,0.61,0,0,0-.54-0.51h-5.256a0.448,0.448,0,0,0-.5.51v24.12a0.508,0.508,0,0,0,.144.34,0.454,0.454,0,0,0,.36.16h4.284a0.471,0.471,0,0,0,.342-0.16,0.481,0.481,0,0,0,.162-0.34v-12.06l4.392,12.06a0.944,0.944,0,0,0,.252.34,0.568,0.568,0,0,0,.4.16H467.8Zm19.152-2.41a1.188,1.188,0,0,0,.342-0.52,1.947,1.947,0,0,0,.054-0.42v-18.43a1.613,1.613,0,0,0-.072-0.43,1.147,1.147,0,0,0-.324-0.5l-2.016-2.02a1.249,1.249,0,0,0-.486-0.33,1.848,1.848,0,0,0-.45-0.07H472.552a0.448,0.448,0,0,0-.5.51v24.12a0.445,0.445,0,0,0,.5.5H484a1.263,1.263,0,0,0,.936-0.4Zm-5.508-2.88h-4.1v-14.55h3.744a0.287,0.287,0,0,1,.252.11l0.612,0.61a0.37,0.37,0,0,1,.108.26v12.81a0.405,0.405,0,0,1-.108.25Zm23.075,5.29a0.534,0.534,0,0,0,.342-0.14,0.474,0.474,0,0,0,.162-0.36v-4.29a0.474,0.474,0,0,0-.162-0.36,0.534,0.534,0,0,0-.342-0.14H496.2v-4.65h6.372a0.441,0.441,0,0,0,.5-0.5v-4.28a0.448,0.448,0,0,0-.5-0.51H496.2v-4.61h8.316a0.486,0.486,0,0,0,.342-0.14,0.459,0.459,0,0,0,.162-0.36v-4.28a0.445,0.445,0,0,0-.162-0.36,0.5,0.5,0,0,0-.342-0.15h-13.1a0.448,0.448,0,0,0-.5.51v24.12a0.445,0.445,0,0,0,.5.5h13.1Zm19.332,0a0.349,0.349,0,0,0,.36-0.16,0.419,0.419,0,0,0,0-.34l-3.672-9.07,2.16-2.13a1.139,1.139,0,0,0,.288-0.4,1.435,1.435,0,0,0,.072-0.53v-9.08q0-.21-0.018-0.45a0.989,0.989,0,0,0-.342-0.55l-2.052-2.06a1.268,1.268,0,0,0-.936-0.36H508.263a0.5,0.5,0,0,0-.342.15,0.445,0.445,0,0,0-.162.36v24.12a0.481,0.481,0,0,0,.162.34,0.47,0.47,0,0,0,.342.16h4.284a0.454,0.454,0,0,0,.36-0.16,0.513,0.513,0,0,0,.144-0.34v-8.79h1.656l3.528,8.79a0.933,0.933,0,0,0,.252.34,0.568,0.568,0,0,0,.4.16h4.968Zm-6.768-14.65a0.357,0.357,0,0,1-.252.11h-3.78v-5.3h3.6a1.8,1.8,0,0,1,.252.02,0.5,0.5,0,0,1,.216.13l0.54,0.54a0.49,0.49,0,0,1,.108.36v3.27a0.376,0.376,0,0,1-.108.29Z" transform="translate(-432.156 -2144.63)"/>
</svg>
