<svg xmlns="http://www.w3.org/2000/svg" viewBox="0 0 55.22 25.13"><defs><style>.cls-1{fill:#088199;fill-rule:evenodd;}</style></defs><title>CNO-Icon</title><g id="Layer_2" data-name="Layer 2"><g id="Secondary_navigation" data-name="Secondary navigation"><g id="CNO"><path class="cls-1" d="M15.59,2.41l-2-2A1.27,1.27,0,0,0,13.1.07,1.39,1.39,0,0,0,12.64,0H3.31a2.1,2.1,0,0,0-.43.05,1.2,1.2,0,0,0-.5.35l-2,2A1,1,0,0,0,0,3a2.78,2.78,0,0,0,0,.36V21.78a2.1,2.1,0,0,0,0,.41,1,1,0,0,0,.32.53l2,2a1.15,1.15,0,0,0,.5.33,2,2,0,0,0,.43.07H12.6a2.14,2.14,0,0,0,.47-.07,1.21,1.21,0,0,0,.5-.33l2-2a2.82,2.82,0,0,0,.34-.4.51.51,0,0,0,.05-.25V18a.55.55,0,0,0-.5-.5H11.2a.44.44,0,0,0-.36.16.5.5,0,0,0-.15.34v1.08a.31.31,0,0,1-.11.25l-.5.51H5.9l-.5-.51A.33.33,0,0,1,5.26,19V6.34A.52.52,0,0,1,5.4,6L6,5.4a.34.34,0,0,1,.25-.11H9.72A.34.34,0,0,1,10,5.4l.61.61a.32.32,0,0,1,.11.25V7.2a.5.5,0,0,0,.15.34.44.44,0,0,0,.36.16h4.28a.55.55,0,0,0,.5-.5V3.35a1.41,1.41,0,0,0-.07-.49A1.35,1.35,0,0,0,15.59,2.41ZM35.14,0H30.85a.53.53,0,0,0-.34.14.46.46,0,0,0-.16.36V14.72l-.18-.39L25.42.5c-.12-.33-.3-.5-.54-.5H19.62a.44.44,0,0,0-.5.5V24.62a.51.51,0,0,0,.14.35.5.5,0,0,0,.36.16H23.9a.55.55,0,0,0,.51-.51V12.56L28.8,24.62a1,1,0,0,0,.25.35.61.61,0,0,0,.4.16h5.69A.5.5,0,0,0,35.5,25a.56.56,0,0,0,.14-.35V.5A.44.44,0,0,0,35.14,0Zm20,2.77a1.66,1.66,0,0,0-.26-.36l-2-2A1.21,1.21,0,0,0,52.33,0a1.82,1.82,0,0,0-.45,0H42.59a1.41,1.41,0,0,0-.45.07,1.24,1.24,0,0,0-.49.33l-2,2a1.17,1.17,0,0,0-.29.45,1.37,1.37,0,0,0-.11.49V21.78a1.28,1.28,0,0,0,.4.94l2,2a1.41,1.41,0,0,0,.45.33,1.64,1.64,0,0,0,.49.07H52a1.15,1.15,0,0,0,.83-.4l2-2a1.08,1.08,0,0,0,.29-.49,1.71,1.71,0,0,0,.07-.45V3.35A1.37,1.37,0,0,0,55.12,2.77ZM49.93,19.08a.31.31,0,0,1-.11.25l-.5.51H45.14l-.5-.51a.45.45,0,0,1-.11-.25V6.26A.38.38,0,0,1,44.64,6l.61-.58a.48.48,0,0,1,.25-.11H49a.36.36,0,0,1,.25.11l.57.58a.34.34,0,0,1,.11.28Z"/></g></g></g></svg>