<svg xmlns="http://www.w3.org/2000/svg" viewBox="0 0 97.27 25.13"><defs><style>.cls-1{fill:#088199;fill-rule:evenodd;}</style></defs><title>MCPON-Icon</title><g id="Layer_2" data-name="Layer 2"><g id="Secondary_navigation" data-name="Secondary navigation"><g id="MCPON"><path class="cls-1" d="M19.6.16A.31.31,0,0,0,19.3,0H14.72a.54.54,0,0,0-.54.47L10.4,14.4l-.28,3-.4-3L6.48.47A.52.52,0,0,0,5.94,0H1.37a.33.33,0,0,0-.29.16A.62.62,0,0,0,1,.5L0,24.62A.44.44,0,0,0,.16,25a.5.5,0,0,0,.34.15H4.79a.45.45,0,0,0,.5-.51l.18-9.14,2.74,9.14a.69.69,0,0,0,.27.36.67.67,0,0,0,.41.15h2.88a.61.61,0,0,0,.4-.16,1,1,0,0,0,.25-.35l2.77-9.14.15,9.14a.44.44,0,0,0,.16.36.54.54,0,0,0,.38.15h4.24a.45.45,0,0,0,.51-.51L19.69.5A.69.69,0,0,0,19.6.16ZM39.2,2.41l-2-2a1.35,1.35,0,0,0-.47-.33A1.41,1.41,0,0,0,36.25,0H26.93a2,2,0,0,0-.43.05A1.16,1.16,0,0,0,26,.4l-2,2a1,1,0,0,0-.33.58q0,.29,0,.36V21.78a3.17,3.17,0,0,0,0,.41,1.06,1.06,0,0,0,.33.53l2,2a1.23,1.23,0,0,0,.51.33,1.91,1.91,0,0,0,.43.07h9.29a2,2,0,0,0,.46-.07,1.23,1.23,0,0,0,.51-.33l2-2a2.49,2.49,0,0,0,.35-.4.66.66,0,0,0,.05-.25V18a.55.55,0,0,0-.5-.5H34.81a.46.46,0,0,0-.36.16.53.53,0,0,0-.14.34v1.08a.34.34,0,0,1-.11.25l-.5.51H29.52l-.5-.51a.34.34,0,0,1-.15-.29V6.34A.54.54,0,0,1,29,6l.57-.61a.36.36,0,0,1,.25-.11h3.5a.36.36,0,0,1,.25.11L34.2,6a.36.36,0,0,1,.11.25V7.2a.53.53,0,0,0,.14.34.46.46,0,0,0,.36.16H39.1a.55.55,0,0,0,.5-.5V3.35a1.41,1.41,0,0,0-.07-.49A1.41,1.41,0,0,0,39.2,2.41Zm18.44,0-2-2.05a1.21,1.21,0,0,0-.43-.29A1.61,1.61,0,0,0,54.68,0H43.24a.45.45,0,0,0-.51.5V24.62a.52.52,0,0,0,.15.35.47.47,0,0,0,.36.16h4.24a.55.55,0,0,0,.38-.16.49.49,0,0,0,.16-.35V15.91h6.74a2.11,2.11,0,0,0,.37-.05,1.08,1.08,0,0,0,.49-.31l2-2.05a1.23,1.23,0,0,0,.36-.56,3.17,3.17,0,0,0,0-.41V3.35A2.08,2.08,0,0,0,58,3,1.58,1.58,0,0,0,57.64,2.41Zm-4.9,7.31a.35.35,0,0,1-.11.22l-.61.57a.4.4,0,0,1-.29.11H48V5.29h3.71A.4.4,0,0,1,52,5.4l.61.61a.36.36,0,0,1,.11.25ZM76.79,2.41,74.73.4A1.15,1.15,0,0,0,74.25,0a1.82,1.82,0,0,0-.45,0H64.51a1.5,1.5,0,0,0-.45.07,1.24,1.24,0,0,0-.49.33l-2,2a1.29,1.29,0,0,0-.29.45,1.37,1.37,0,0,0-.11.49V21.78a1.28,1.28,0,0,0,.4.94l2,2a1.41,1.41,0,0,0,.45.33,1.75,1.75,0,0,0,.49.07h9.4a1.14,1.14,0,0,0,.82-.4l2.06-2a1.06,1.06,0,0,0,.28-.49,1.78,1.78,0,0,0,.08-.45V3.35A1.36,1.36,0,0,0,77,2.77,1.64,1.64,0,0,0,76.79,2.41ZM71.85,19.08a.33.33,0,0,1-.1.25l-.51.51H67.07l-.51-.51a.45.45,0,0,1-.11-.25V6.26A.38.38,0,0,1,66.56,6l.61-.58a.47.47,0,0,1,.26-.11h3.49a.36.36,0,0,1,.25.11l.58.58a.37.37,0,0,1,.1.28ZM96.77,0H92.48a.53.53,0,0,0-.34.14A.46.46,0,0,0,92,.5V14.72l-.18-.39L87.05.5c-.12-.33-.3-.5-.54-.5H81.25a.44.44,0,0,0-.5.5V24.62a.51.51,0,0,0,.14.35.5.5,0,0,0,.36.16h4.28a.55.55,0,0,0,.51-.51V12.56l4.39,12.06a1,1,0,0,0,.25.35.61.61,0,0,0,.4.16h5.69a.5.5,0,0,0,.36-.16.56.56,0,0,0,.14-.35V.5A.44.44,0,0,0,96.77,0Z"/></g></g></g></svg>