<svg xmlns="http://www.w3.org/2000/svg" viewBox="0 0 52.6 25.13"><defs><style>.cls-1{fill:#088199;fill-rule:evenodd;}</style></defs><title>POD-Icon</title><g id="Layer_2" data-name="Layer 2"><g id="Secondary_navigation" data-name="Secondary navigation"><g id="POD"><path class="cls-1" d="M14.9,2.41l-2-2.05a1.3,1.3,0,0,0-.43-.29A1.61,1.61,0,0,0,12,0H.5A.44.44,0,0,0,0,.5V24.62A.56.56,0,0,0,.14,25a.5.5,0,0,0,.36.16H4.75A.55.55,0,0,0,5.13,25a.49.49,0,0,0,.16-.35V15.91H12a2.09,2.09,0,0,0,.38-.05,1.08,1.08,0,0,0,.49-.31l2-2.05a1.08,1.08,0,0,0,.36-.56,2.1,2.1,0,0,0,0-.41V3.35a2.08,2.08,0,0,0-.05-.4A1.49,1.49,0,0,0,14.9,2.41ZM10,9.72a.35.35,0,0,1-.11.22l-.61.57a.4.4,0,0,1-.29.11H5.29V5.29H9a.4.4,0,0,1,.29.11L9.9,6a.36.36,0,0,1,.11.25ZM33.7,2.41,31.64.4A1.15,1.15,0,0,0,31.16,0a1.82,1.82,0,0,0-.45,0H21.42A1.5,1.5,0,0,0,21,.07a1.24,1.24,0,0,0-.49.33l-2,2a1.29,1.29,0,0,0-.29.45,1.37,1.37,0,0,0-.11.49V21.78a1.28,1.28,0,0,0,.4.94l2,2a1.41,1.41,0,0,0,.45.33,1.75,1.75,0,0,0,.49.07h9.4a1.14,1.14,0,0,0,.82-.4l2.06-2a1.06,1.06,0,0,0,.28-.49,1.78,1.78,0,0,0,.08-.45V3.35A1.36,1.36,0,0,0,34,2.77,1.64,1.64,0,0,0,33.7,2.41ZM28.76,19.08a.33.33,0,0,1-.1.25l-.51.51H24l-.51-.51a.45.45,0,0,1-.11-.25V6.26A.38.38,0,0,1,23.47,6l.61-.58a.47.47,0,0,1,.26-.11h3.49a.36.36,0,0,1,.25.11l.58.58a.37.37,0,0,1,.1.28ZM52.52,2.92a1.11,1.11,0,0,0-.32-.51l-2-2A1.22,1.22,0,0,0,49.7.07,1.5,1.5,0,0,0,49.25,0H37.8a.44.44,0,0,0-.5.5V24.62a.44.44,0,0,0,.5.51H49.25a1.24,1.24,0,0,0,.93-.4l2-2a1.17,1.17,0,0,0,.34-.53,1.62,1.62,0,0,0,.06-.41V3.35A1.52,1.52,0,0,0,52.52,2.92ZM47.3,19.08a.42.42,0,0,1-.1.25l-.51.51h-4.1V5.29h3.74a.27.27,0,0,1,.25.11L47.2,6a.35.35,0,0,1,.1.25Z"/></g></g></g></svg>