<svg xmlns="http://www.w3.org/2000/svg" viewBox="0 0 110.51 25.13"><defs><style>.cls-1{fill:#088199;fill-rule:evenodd;}</style></defs><title>SECNAV-Icon</title><g id="Layer_2" data-name="Layer 2"><g id="Secondary_navigation" data-name="Secondary navigation"><g id="SECNAV"><path class="cls-1" d="M13.61.4a1.41,1.41,0,0,0-.45-.33A1.41,1.41,0,0,0,12.67,0H3.35a2,2,0,0,0-.43.05A1.16,1.16,0,0,0,2.41.4l-2,2a1.28,1.28,0,0,0-.4.94v8.49a1.2,1.2,0,0,0,.11.54,1.41,1.41,0,0,0,.29.4l2,2a1.31,1.31,0,0,0,.94.39H9.83a.3.3,0,0,1,.18.11l.54.5a.45.45,0,0,1,.18.36V18.9a.34.34,0,0,1-.11.25l-.61.58a.3.3,0,0,1-.18.11H5.29V18.22a.45.45,0,0,0-.5-.51H.54a.55.55,0,0,0-.38.15.44.44,0,0,0-.16.36v3.49a1.58,1.58,0,0,0,.11.54,1.29,1.29,0,0,0,.29.47l2,2a1.28,1.28,0,0,0,.94.4h9.32a1.47,1.47,0,0,0,.47-.11,1.29,1.29,0,0,0,.47-.29l2-2a1.23,1.23,0,0,0,.33-.51,1.52,1.52,0,0,0,.07-.43V13.25a1.75,1.75,0,0,0,0-.43,1.63,1.63,0,0,0-.35-.51l-2-2a1.81,1.81,0,0,0-.4-.33,1.3,1.3,0,0,0-.54-.07H5.94l-.5-.5a.4.4,0,0,1-.15-.26V6.26A.39.39,0,0,1,5.44,6L6,5.4a.36.36,0,0,1,.25-.11h4.47v1.8a.45.45,0,0,0,.5.51h4.25a.55.55,0,0,0,.38-.15A.44.44,0,0,0,16,7.09V3.38a1.31,1.31,0,0,0-.4-1ZM33.12,0H20a.45.45,0,0,0-.51.5V24.62a.45.45,0,0,0,.51.51h13.1a.5.5,0,0,0,.34-.15.44.44,0,0,0,.16-.36V20.34a.46.46,0,0,0-.16-.36.48.48,0,0,0-.34-.14H24.8V15.19h6.38a.44.44,0,0,0,.5-.5V10.4a.44.44,0,0,0-.5-.5H24.8V5.29h8.32a.53.53,0,0,0,.34-.14.46.46,0,0,0,.16-.36V.5a.46.46,0,0,0-.16-.36A.53.53,0,0,0,33.12,0ZM51.77,2.41l-2-2a1.27,1.27,0,0,0-.47-.33A1.39,1.39,0,0,0,48.82,0H39.49a2.1,2.1,0,0,0-.43.05,1.2,1.2,0,0,0-.5.35l-2,2a1,1,0,0,0-.32.58,2.78,2.78,0,0,0,0,.36V21.78a2.1,2.1,0,0,0,0,.41,1,1,0,0,0,.32.53l2,2a1.15,1.15,0,0,0,.5.33,2,2,0,0,0,.43.07h9.29a2.14,2.14,0,0,0,.47-.07,1.21,1.21,0,0,0,.5-.33l2-2a2.82,2.82,0,0,0,.34-.4.51.51,0,0,0,0-.25V18a.55.55,0,0,0-.5-.5H47.38a.44.44,0,0,0-.36.16.5.5,0,0,0-.15.34v1.08a.31.31,0,0,1-.11.25l-.5.51H42.08l-.5-.51a.33.33,0,0,1-.14-.29V6.34A.52.52,0,0,1,41.58,6l.58-.61a.34.34,0,0,1,.25-.11H45.9a.34.34,0,0,1,.25.11l.61.61a.32.32,0,0,1,.11.25V7.2a.5.5,0,0,0,.15.34.44.44,0,0,0,.36.16h4.28a.55.55,0,0,0,.5-.5V3.35a1.41,1.41,0,0,0-.07-.49A1.35,1.35,0,0,0,51.77,2.41ZM71.31,0H67a.53.53,0,0,0-.34.14.46.46,0,0,0-.16.36V14.72l-.18-.39L61.59.5c-.12-.33-.3-.5-.54-.5H55.8a.45.45,0,0,0-.51.5V24.62a.52.52,0,0,0,.15.35.47.47,0,0,0,.36.16h4.28a.49.49,0,0,0,.34-.16.51.51,0,0,0,.17-.35V12.56L65,24.62a1,1,0,0,0,.25.35.61.61,0,0,0,.4.16h5.68a.47.47,0,0,0,.36-.16.52.52,0,0,0,.15-.35V.5A.45.45,0,0,0,71.31,0Zm15,.54c-.12-.36-.29-.54-.5-.54H81.57c-.21,0-.38.17-.5.5L73.94,24.62A.33.33,0,0,0,74,25a.6.6,0,0,0,.48.16h4.11A.61.61,0,0,0,79,25a.88.88,0,0,0,.25-.35l.87-2.91h7.23l.87,2.91a1,1,0,0,0,.25.35.61.61,0,0,0,.4.16H93A.65.65,0,0,0,93.4,25a.31.31,0,0,0,.09-.35ZM81.54,16.85l2.19-7.38,2.16,7.38ZM110.41.23a.44.44,0,0,0-.36-.23h-4.5c-.29,0-.47.17-.54.5l-3.82,13.83-.36,2.16-.28-2.16L97.31.5c-.08-.33-.26-.5-.54-.5h-4.5a.4.4,0,0,0-.36.22.48.48,0,0,0-.08.43L98.1,24.59a.93.93,0,0,0,.25.38.61.61,0,0,0,.4.16h4.78A.69.69,0,0,0,104,25a.89.89,0,0,0,.27-.38L110.48.65A.45.45,0,0,0,110.41.23Z"/></g></g></g></svg>