<svg xmlns="http://www.w3.org/2000/svg" viewBox="0 0 92.09 25.13"><defs><style>.cls-1{fill:#088199;fill-rule:evenodd;}</style></defs><title>Under-Icon</title><g id="Layer_2" data-name="Layer 2"><g id="Secondary_navigation" data-name="Secondary navigation"><g id="UNDER"><path class="cls-1" d="M15.48,0H11.23a.44.44,0,0,0-.5.5V19a.4.4,0,0,1-.15.29l-.5.51H5.9l-.5-.51a.35.35,0,0,1-.09-.11.37.37,0,0,1,0-.14V.5a.44.44,0,0,0-.5-.5H.5A.53.53,0,0,0,.16.14.46.46,0,0,0,0,.5V21.78a2.1,2.1,0,0,0,.05.43,1.22,1.22,0,0,0,.35.51l2,2.05a1.3,1.3,0,0,0,.43.29,2,2,0,0,0,.51.07h9.32a1.25,1.25,0,0,0,.52-.09,1.37,1.37,0,0,0,.42-.31l2-2a1.28,1.28,0,0,0,.36-.94V.5A.44.44,0,0,0,15.48,0ZM35.64,0H31.36A.56.56,0,0,0,31,.14a.5.5,0,0,0-.16.36V14.72l-.18-.39L25.92.5c-.12-.33-.3-.5-.54-.5H20.12a.44.44,0,0,0-.5.5V24.62a.56.56,0,0,0,.14.35.5.5,0,0,0,.36.16h4.29a.51.51,0,0,0,.34-.16.49.49,0,0,0,.16-.35V12.56L29.3,24.62a1,1,0,0,0,.26.35.61.61,0,0,0,.39.16h5.69A.5.5,0,0,0,36,25a.51.51,0,0,0,.14-.35V.5A.44.44,0,0,0,35.64,0ZM54.79,2.41l-2-2a1.24,1.24,0,0,0-.49-.33A1.5,1.5,0,0,0,51.84,0H40.39a.44.44,0,0,0-.5.5V24.62a.44.44,0,0,0,.5.51H51.84a1.28,1.28,0,0,0,.94-.4l2-2a1.17,1.17,0,0,0,.34-.53,1.62,1.62,0,0,0,.06-.41V3.35a1.91,1.91,0,0,0-.07-.43A1.23,1.23,0,0,0,54.79,2.41ZM49.9,19.08a.45.45,0,0,1-.11.25l-.51.51h-4.1V5.29h3.74a.3.3,0,0,1,.26.11l.61.61a.36.36,0,0,1,.11.25ZM72.36,0H59.25a.44.44,0,0,0-.5.5V24.62a.45.45,0,0,0,.5.51H72.36A.5.5,0,0,0,72.7,25a.44.44,0,0,0,.16-.36V20.34A.46.46,0,0,0,72.7,20a.48.48,0,0,0-.34-.14H64V15.19h6.37a.45.45,0,0,0,.51-.5V10.4a.45.45,0,0,0-.51-.5H64V5.29h8.32a.53.53,0,0,0,.34-.14.46.46,0,0,0,.16-.36V.5A.46.46,0,0,0,72.7.14.53.53,0,0,0,72.36,0ZM92.05,24.62l-3.67-9.07,2.16-2.12a1.46,1.46,0,0,0,.29-.4,1.76,1.76,0,0,0,.07-.54V3.42c0-.14,0-.29,0-.45a1,1,0,0,0-.34-.56L88.49.36A1.28,1.28,0,0,0,87.55,0H76.1a.53.53,0,0,0-.34.14A.46.46,0,0,0,75.6.5V24.62a.49.49,0,0,0,.16.35.51.51,0,0,0,.34.16h4.29a.5.5,0,0,0,.36-.16.56.56,0,0,0,.14-.35V15.84h1.66l3.52,8.78a1,1,0,0,0,.26.35.61.61,0,0,0,.39.16h5a.37.37,0,0,0,.36-.16A.43.43,0,0,0,92.05,24.62Zm-6.44-15a.4.4,0,0,1-.11.29l-.58.58a.33.33,0,0,1-.25.1H80.89V5.29h3.6l.25,0a.37.37,0,0,1,.22.13L85.5,6a.5.5,0,0,1,.11.36Z"/></g></g></g></svg>